<svg width="233" height="37" viewBox="0 0 233 37" fill="none" xmlns="http://www.w3.org/2000/svg">
<g filter="url(#filter0_d_2280_189)">
<path d="M108.672 33.8105H7.07088C4.83667 33.8105 3.00684 32.0265 3.00684 29.8481V6.07346C3.00684 3.89511 4.83667 2.11102 7.07088 2.11102H108.672C110.906 2.11102 112.736 3.89511 112.736 6.07346V29.8481C112.736 32.0265 110.906 33.8105 108.672 33.8105Z" fill="black"/>
<path d="M108.672 2.746C110.554 2.746 112.085 4.23885 112.085 6.07346V29.8481C112.085 31.6827 110.554 33.1756 108.672 33.1756H7.07088C5.18923 33.1756 3.6581 31.6827 3.6581 29.8481V6.07346C3.6581 4.23885 5.18923 2.746 7.07088 2.746H108.672ZM108.672 2.11102H7.07088C4.83667 2.11102 3.00684 3.89511 3.00684 6.07346V29.8481C3.00684 32.0265 4.83667 33.8105 7.07088 33.8105H108.672C110.906 33.8105 112.736 32.0265 112.736 29.8481V6.07346C112.736 3.89511 110.906 2.11102 108.672 2.11102Z" fill="#A6A6A6"/>
<path d="M11.4883 8.08531C11.2495 8.329 11.1113 8.7084 11.1113 9.19975V26.7256C11.1113 27.217 11.2495 27.5964 11.4883 27.8401L11.5472 27.8936L21.6199 18.0766V17.8448L11.5472 8.02786L11.4883 8.08531Z" fill="url(#paint0_linear_2280_189)"/>
<path d="M24.974 21.3511L21.6201 18.0771V17.8453L24.978 14.5713L25.0532 14.6139L29.0299 16.82C30.1648 17.4461 30.1648 18.4763 29.0299 19.1064L25.0532 21.3085L24.974 21.3511V21.3511Z" fill="url(#paint1_linear_2280_189)"/>
<path d="M25.053 21.3081L21.6199 17.9609L11.4883 27.8402C11.8652 28.2266 12.4799 28.2731 13.1789 27.8868L25.053 21.3081" fill="url(#paint2_linear_2280_189)"/>
<path d="M25.053 14.6137L13.1789 8.03503C12.4799 7.65265 11.8652 7.69921 11.4883 8.08555L21.6199 17.9609L25.053 14.6137Z" fill="url(#paint3_linear_2280_189)"/>
<path d="M41.5478 10.2284C41.5478 10.8901 41.3446 11.4201 40.9443 11.8154C40.4841 12.2839 39.8846 12.5197 39.1501 12.5197C38.448 12.5197 37.8486 12.28 37.3568 11.8074C36.864 11.328 36.6182 10.7396 36.6182 10.0352C36.6182 9.33091 36.864 8.74249 37.3568 8.26699C37.8486 7.79051 38.448 7.55078 39.1501 7.55078C39.4996 7.55078 39.8328 7.62111 40.1508 7.75188C40.4678 7.88363 40.7259 8.06194 40.9128 8.28185L40.4881 8.69989C40.162 8.32445 39.718 8.1392 39.1501 8.1392C38.638 8.1392 38.194 8.31355 37.8171 8.66522C37.4442 9.01787 37.2572 9.47455 37.2572 10.0352C37.2572 10.5959 37.4442 11.0565 37.8171 11.4092C38.194 11.7569 38.638 11.9352 39.1501 11.9352C39.6936 11.9352 40.1508 11.7569 40.5115 11.4052C40.7493 11.1725 40.8844 10.8515 40.92 10.4414H39.1501V9.86881H41.5113C41.5397 9.99263 41.5478 10.1125 41.5478 10.2284V10.2284Z" fill="white" stroke="white" stroke-width="0.097537" stroke-miterlimit="10"/>
<path d="M45.2941 8.24314H43.0761V9.74886H45.0756V10.3214H43.0761V11.8272H45.2941V12.4106H42.4482V7.65967H45.2941V8.24314Z" fill="white" stroke="white" stroke-width="0.097537" stroke-miterlimit="10"/>
<path d="M47.9375 12.4106H47.3097V8.24314H45.9492V7.65967H49.299V8.24314H47.9375V12.4106V12.4106Z" fill="white" stroke="white" stroke-width="0.097537" stroke-miterlimit="10"/>
<path d="M51.7236 12.4106V7.65967H52.3505V12.4106H51.7236Z" fill="white" stroke="white" stroke-width="0.097537" stroke-miterlimit="10"/>
<path d="M55.129 12.4106H54.5061V8.24314H53.1406V7.65967H56.4945V8.24314H55.129V12.4106Z" fill="white" stroke="white" stroke-width="0.097537" stroke-miterlimit="10"/>
<path d="M62.8367 11.7995C62.3561 12.28 61.7607 12.5197 61.0505 12.5197C60.3363 12.5197 59.7409 12.28 59.2603 11.7995C58.7808 11.3201 58.542 10.7316 58.542 10.0352C58.542 9.33883 58.7808 8.75041 59.2603 8.27095C59.7409 7.79051 60.3363 7.55078 61.0505 7.55078C61.7566 7.55078 62.352 7.79051 62.8326 8.27492C63.3162 8.75833 63.555 9.34279 63.555 10.0352C63.555 10.7316 63.3162 11.3201 62.8367 11.7995ZM59.7246 11.4013C60.0863 11.7569 60.5263 11.9352 61.0505 11.9352C61.5707 11.9352 62.0147 11.7569 62.3724 11.4013C62.733 11.0457 62.9159 10.589 62.9159 10.0352C62.9159 9.48148 62.733 9.02481 62.3724 8.66918C62.0147 8.31355 61.5707 8.13524 61.0505 8.13524C60.5263 8.13524 60.0863 8.31355 59.7246 8.66918C59.3639 9.02481 59.1811 9.48148 59.1811 10.0352C59.1811 10.589 59.3639 11.0457 59.7246 11.4013V11.4013Z" fill="white" stroke="white" stroke-width="0.097537" stroke-miterlimit="10"/>
<path d="M64.4355 12.4106V7.65967H65.1976L67.5669 11.3546H67.5943L67.5669 10.4413V7.65967H68.1938V12.4106H67.5395L65.0584 8.53339H65.0309L65.0584 9.45069V12.4106H64.4355V12.4106Z" fill="white" stroke="white" stroke-width="0.097537" stroke-miterlimit="10"/>
<path d="M58.3873 19.3498C56.4782 19.3498 54.9186 20.7663 54.9186 22.7208C54.9186 24.6594 56.4782 26.0909 58.3873 26.0909C60.3004 26.0909 61.86 24.6594 61.86 22.7208C61.86 20.7663 60.3004 19.3498 58.3873 19.3498ZM58.3873 24.7635C57.3398 24.7635 56.4386 23.9204 56.4386 22.7208C56.4386 21.5053 57.3398 20.6772 58.3873 20.6772C59.4348 20.6772 60.3401 21.5053 60.3401 22.7208C60.3401 23.9204 59.4348 24.7635 58.3873 24.7635V24.7635ZM50.819 19.3498C48.9059 19.3498 47.3504 20.7663 47.3504 22.7208C47.3504 24.6594 48.9059 26.0909 50.819 26.0909C52.7312 26.0909 54.2877 24.6594 54.2877 22.7208C54.2877 20.7663 52.7312 19.3498 50.819 19.3498ZM50.819 24.7635C49.7705 24.7635 48.8663 23.9204 48.8663 22.7208C48.8663 21.5053 49.7705 20.6772 50.819 20.6772C51.8665 20.6772 52.7677 21.5053 52.7677 22.7208C52.7677 23.9204 51.8665 24.7635 50.819 24.7635ZM41.8131 20.383V21.8154H45.3214C45.2188 22.6158 44.9445 23.2042 44.5238 23.6143C44.0118 24.1097 43.2142 24.6594 41.8131 24.6594C39.6541 24.6594 37.9635 22.9605 37.9635 20.8555C37.9635 18.7505 39.6541 17.0516 41.8131 17.0516C42.9805 17.0516 43.8299 17.4963 44.4568 18.0729L45.4921 17.0634C44.6153 16.2472 43.4489 15.6201 41.8131 15.6201C38.8525 15.6201 36.3643 17.9689 36.3643 20.8555C36.3643 23.7421 38.8525 26.0909 41.8131 26.0909C43.4133 26.0909 44.6153 25.5797 45.5602 24.6208C46.5284 23.6768 46.8302 22.3493 46.8302 21.2775C46.8302 20.9447 46.8017 20.6386 46.7509 20.383H41.8131ZM78.6394 21.4935C78.3539 20.7396 77.473 19.3498 75.6788 19.3498C73.9008 19.3498 72.4204 20.7158 72.4204 22.7208C72.4204 24.6089 73.8855 26.0909 75.8495 26.0909C77.4375 26.0909 78.3539 25.1468 78.7309 24.597L77.5523 23.8313C77.1591 24.392 76.6237 24.7635 75.8495 24.7635C75.0803 24.7635 74.5286 24.4197 74.1751 23.7421L78.7989 21.8768L78.6394 21.4935V21.4935ZM73.9251 22.6158C73.8855 21.3161 74.9605 20.6504 75.7306 20.6504C76.3341 20.6504 76.8462 20.9447 77.0169 21.3657L73.9251 22.6158V22.6158ZM70.1669 25.8858H71.6869V15.9797H70.1669V25.8858ZM67.6777 20.1007H67.6269C67.2855 19.7064 66.6343 19.3498 65.8092 19.3498C64.078 19.3498 62.495 20.8317 62.495 22.7317C62.495 24.6208 64.078 26.0909 65.8092 26.0909C66.6343 26.0909 67.2855 25.7313 67.6269 25.3251H67.6777V25.8086C67.6777 27.0973 66.9716 27.7898 65.8326 27.7898C64.904 27.7898 64.3279 27.136 64.0902 26.5862L62.7683 27.1241C63.1493 28.0176 64.1582 29.1172 65.8326 29.1172C67.6147 29.1172 69.1184 28.0949 69.1184 25.6075V19.5548H67.6777V20.1007V20.1007ZM65.9393 24.7635C64.8918 24.7635 64.015 23.9086 64.015 22.7317C64.015 21.544 64.8918 20.6772 65.9393 20.6772C66.9716 20.6772 67.7854 21.544 67.7854 22.7317C67.7854 23.9086 66.9716 24.7635 65.9393 24.7635V24.7635ZM85.7556 15.9797H82.1203V25.8858H83.6362V22.1324H85.7556C87.4391 22.1324 89.0901 20.9447 89.0901 19.0556C89.0901 17.1675 87.435 15.9797 85.7556 15.9797V15.9797ZM85.7952 20.7545H83.6362V17.3577H85.7952C86.927 17.3577 87.5732 18.274 87.5732 19.0556C87.5732 19.8223 86.927 20.7545 85.7952 20.7545ZM95.1658 19.331C94.0706 19.331 92.9316 19.8025 92.4633 20.8476L93.8085 21.3974C94.098 20.8476 94.6304 20.6693 95.1933 20.6693C95.9797 20.6693 96.7772 21.1299 96.7894 21.9432V22.0472C96.5151 21.8927 95.9279 21.6638 95.2055 21.6638C93.7566 21.6638 92.2804 22.4415 92.2804 23.8927C92.2804 25.2201 93.4671 26.075 94.8011 26.075C95.8212 26.075 96.384 25.6263 96.7376 25.1042H96.7894V25.87H98.2535V22.07C98.2535 20.3136 96.9083 19.331 95.1658 19.331ZM94.983 24.7595C94.4871 24.7595 93.7963 24.5198 93.7963 23.9204C93.7963 23.1537 94.6578 22.8595 95.4036 22.8595C96.0711 22.8595 96.384 23.0031 96.7894 23.1923C96.6706 24.1097 95.8608 24.7595 94.983 24.7595V24.7595ZM103.588 19.5479L101.845 23.8422H101.793L99.9919 19.5479H98.3571L101.064 25.549L99.5194 28.8884H101.103L105.274 19.5479H103.588V19.5479ZM89.9232 25.8858H91.4432V15.9797H89.9232V25.8858Z" fill="white"/>
<path d="M230.36 30.1311C230.36 31.8309 228.955 33.2078 227.216 33.2078H124.323C122.585 33.2078 121.175 31.8309 121.175 30.1311V5.59537C121.175 3.89636 122.585 2.51465 124.323 2.51465H227.215C228.955 2.51465 230.359 3.89636 230.359 5.59537L230.36 30.1311Z" fill="black"/>
<path d="M226.883 2.55265C228.777 2.55265 230.317 4.05479 230.317 5.90082V29.8234C230.317 31.6695 228.777 33.1716 226.883 33.1716H124.65C122.757 33.1716 121.216 31.6695 121.216 29.8234V5.90082C121.216 4.05479 122.757 2.55265 124.65 2.55265H226.883ZM226.883 1.91371H124.65C122.402 1.91371 120.561 3.70891 120.561 5.90082V29.8234C120.561 32.0154 122.402 33.8105 124.65 33.8105H226.883C229.131 33.8105 230.973 32.0154 230.973 29.8234V5.90082C230.973 3.70891 229.131 1.91371 226.883 1.91371Z" fill="#A6A6A6"/>
<path d="M145.201 17.6892C145.177 15.1191 147.359 13.8688 147.459 13.8106C146.223 12.0538 144.308 11.8138 143.635 11.7947C142.026 11.6296 140.466 12.7332 139.646 12.7332C138.81 12.7332 137.548 11.8106 136.188 11.8377C134.438 11.8641 132.801 12.8521 131.903 14.3863C130.049 17.5146 131.431 22.1117 133.207 24.6403C134.095 25.8787 135.133 27.2614 136.492 27.2128C137.821 27.1594 138.317 26.3867 139.921 26.3867C141.51 26.3867 141.976 27.2128 143.362 27.1817C144.788 27.1594 145.686 25.9377 146.543 24.6882C147.57 23.2688 147.982 21.8709 147.998 21.7991C147.965 21.788 145.228 20.7696 145.201 17.6892Z" fill="white"/>
<path d="M142.584 10.1313C143.299 9.25968 143.788 8.07391 143.652 6.87061C142.617 6.91526 141.324 7.56835 140.579 8.42079C139.919 9.17196 139.33 10.4032 139.483 11.561C140.645 11.6456 141.838 10.9893 142.584 10.1313Z" fill="white"/>
<path d="M160.678 9.89334C160.678 10.8319 160.39 11.5384 159.813 12.0129C159.279 12.4507 158.52 12.67 157.537 12.67C157.05 12.67 156.632 12.6492 156.283 12.6078V7.47954C156.739 7.40777 157.229 7.37109 157.759 7.37109C158.696 7.37109 159.402 7.56965 159.878 7.96677C160.411 8.41572 160.678 9.05764 160.678 9.89334ZM159.775 9.91646C159.775 9.30803 159.609 8.84154 159.279 8.51619C158.949 8.19164 158.466 8.02897 157.831 8.02897C157.561 8.02897 157.331 8.04651 157.14 8.08319V11.9818C157.246 11.9977 157.439 12.0049 157.719 12.0049C158.375 12.0049 158.882 11.8271 159.238 11.4714C159.595 11.1158 159.775 10.5975 159.775 9.91646Z" fill="white"/>
<path d="M165.47 10.7135C165.47 11.2917 165.301 11.7653 164.963 12.1369C164.608 12.5189 164.137 12.7095 163.55 12.7095C162.984 12.7095 162.533 12.5269 162.197 12.1601C161.862 11.7941 161.694 11.3323 161.694 10.7757C161.694 10.1936 161.867 9.71597 162.214 9.34517C162.56 8.97437 163.027 8.78857 163.614 8.78857C164.18 8.78857 164.635 8.97118 164.979 9.3372C165.306 9.69285 165.47 10.1522 165.47 10.7135ZM164.581 10.7407C164.581 10.3938 164.505 10.0963 164.352 9.84835C164.172 9.54852 163.916 9.3986 163.583 9.3986C163.238 9.3986 162.977 9.54852 162.797 9.84835C162.643 10.0963 162.567 10.3986 162.567 10.7558C162.567 11.1027 162.644 11.4001 162.797 11.6481C162.982 11.948 163.241 12.0979 163.575 12.0979C163.902 12.0979 164.159 11.9456 164.343 11.6402C164.502 11.3874 164.581 11.0875 164.581 10.7407Z" fill="white"/>
<path d="M171.896 8.86475L170.689 12.6238H169.904L169.404 10.9915C169.278 10.584 169.175 10.1789 169.094 9.777H169.079C169.004 10.1901 168.901 10.5944 168.769 10.9915L168.238 12.6238H167.444L166.31 8.86475H167.19L167.626 10.6518C167.732 11.0744 167.819 11.4771 167.888 11.8583H167.904C167.967 11.5441 168.073 11.1438 168.222 10.6597L168.769 8.86554H169.467L169.992 10.6215C170.118 11.0497 170.221 11.4619 170.301 11.8591H170.324C170.383 11.4723 170.47 11.06 170.586 10.6215L171.054 8.86554H171.896V8.86475Z" fill="white"/>
<path d="M176.338 12.6236H175.481V10.4706C175.481 9.80714 175.223 9.47541 174.704 9.47541C174.45 9.47541 174.245 9.56632 174.085 9.74893C173.927 9.93154 173.847 10.1468 173.847 10.3932V12.6228H172.99V9.93872C172.99 9.60858 172.979 9.25054 172.959 8.86299H173.712L173.752 9.45069H173.776C173.876 9.26808 174.025 9.11737 174.22 8.99696C174.452 8.85662 174.712 8.78564 174.997 8.78564C175.357 8.78564 175.656 8.89888 175.894 9.12614C176.19 9.40444 176.338 9.8199 176.338 10.3717V12.6236Z" fill="white"/>
<path d="M178.703 12.625H177.847V7.14111H178.703V12.625Z" fill="white"/>
<path d="M183.75 10.7135C183.75 11.2917 183.58 11.7653 183.242 12.1369C182.887 12.5189 182.416 12.7095 181.829 12.7095C181.263 12.7095 180.812 12.5269 180.477 12.1601C180.141 11.7941 179.974 11.3323 179.974 10.7757C179.974 10.1936 180.146 9.71597 180.493 9.34517C180.84 8.97437 181.306 8.78857 181.892 8.78857C182.459 8.78857 182.913 8.97118 183.258 9.3372C183.585 9.69285 183.75 10.1522 183.75 10.7135ZM182.86 10.7407C182.86 10.3938 182.783 10.0963 182.63 9.84835C182.451 9.54852 182.194 9.3986 181.862 9.3986C181.517 9.3986 181.255 9.54852 181.076 9.84835C180.922 10.0963 180.846 10.3986 180.846 10.7558C180.846 11.1027 180.923 11.4001 181.076 11.6481C181.262 11.948 181.52 12.0979 181.854 12.0979C182.181 12.0979 182.437 11.9456 182.622 11.6402C182.781 11.3874 182.86 11.0875 182.86 10.7407Z" fill="white"/>
<path d="M187.897 12.6242H187.127L187.063 12.1912H187.039C186.776 12.5365 186.401 12.7095 185.913 12.7095C185.549 12.7095 185.255 12.5955 185.033 12.369C184.832 12.1633 184.731 11.9073 184.731 11.6035C184.731 11.1442 184.928 10.7941 185.323 10.5517C185.717 10.3093 186.271 10.1904 186.985 10.196V10.1258C186.985 9.63065 186.719 9.38345 186.185 9.38345C185.804 9.38345 185.469 9.47675 185.18 9.66175L185.005 9.11312C185.364 8.89702 185.806 8.78857 186.328 8.78857C187.336 8.78857 187.841 9.3069 187.841 10.3435V11.7279C187.841 12.1035 187.86 12.4025 187.897 12.6242ZM187.007 11.3323V10.7526C186.061 10.7367 185.589 10.9895 185.589 11.5102C185.589 11.7063 185.643 11.8531 185.753 11.9511C185.863 12.0492 186.004 12.0979 186.172 12.0979C186.36 12.0979 186.536 12.0397 186.696 11.924C186.857 11.8076 186.956 11.6601 186.993 11.4791C187.002 11.4384 187.007 11.389 187.007 11.3323Z" fill="white"/>
<path d="M192.767 12.625H192.007L191.967 12.0213H191.943C191.7 12.4806 191.286 12.7103 190.705 12.7103C190.24 12.7103 189.853 12.5325 189.547 12.1768C189.24 11.8212 189.087 11.3595 189.087 10.7925C189.087 10.1841 189.253 9.69126 189.587 9.31488C189.91 8.96402 190.306 8.78858 190.777 8.78858C191.294 8.78858 191.657 8.95844 191.863 9.29893H191.879V7.14111H192.737V11.6123C192.737 11.9783 192.747 12.3156 192.767 12.625ZM191.879 11.0397V10.4129C191.879 10.3045 191.871 10.2168 191.855 10.1498C191.807 9.94883 191.703 9.77978 191.545 9.64342C191.386 9.50706 191.194 9.43848 190.972 9.43848C190.652 9.43848 190.402 9.56208 190.218 9.81008C190.036 10.0581 189.943 10.3747 189.943 10.7614C189.943 11.133 190.031 11.4344 190.207 11.6665C190.392 11.9137 190.642 12.0373 190.956 12.0373C191.237 12.0373 191.462 11.9344 191.633 11.7279C191.798 11.5373 191.879 11.3076 191.879 11.0397Z" fill="white"/>
<path d="M200.096 10.7135C200.096 11.2917 199.927 11.7653 199.589 12.1369C199.234 12.5189 198.764 12.7095 198.176 12.7095C197.611 12.7095 197.16 12.5269 196.823 12.1601C196.488 11.7941 196.32 11.3323 196.32 10.7757C196.32 10.1936 196.493 9.71597 196.84 9.34517C197.186 8.97437 197.653 8.78857 198.241 8.78857C198.806 8.78857 199.261 8.97118 199.605 9.3372C199.932 9.69285 200.096 10.1522 200.096 10.7135ZM199.208 10.7407C199.208 10.3938 199.131 10.0963 198.978 9.84835C198.798 9.54852 198.542 9.3986 198.209 9.3986C197.865 9.3986 197.604 9.54852 197.423 9.84835C197.269 10.0963 197.193 10.3986 197.193 10.7558C197.193 11.1027 197.27 11.4001 197.423 11.6481C197.608 11.948 197.867 12.0979 198.201 12.0979C198.528 12.0979 198.785 11.9456 198.97 11.6402C199.128 11.3874 199.208 11.0875 199.208 10.7407Z" fill="white"/>
<path d="M204.706 12.6236H203.849V10.4706C203.849 9.80714 203.591 9.47541 203.072 9.47541C202.817 9.47541 202.612 9.56632 202.453 9.74893C202.295 9.93154 202.215 10.1468 202.215 10.3932V12.6228H201.357V9.93872C201.357 9.60858 201.348 9.25054 201.327 8.86299H202.08L202.12 9.45069H202.143C202.244 9.26808 202.393 9.11737 202.587 8.99696C202.821 8.85662 203.08 8.78564 203.365 8.78564C203.724 8.78564 204.024 8.89888 204.262 9.12614C204.559 9.40444 204.706 9.8199 204.706 10.3717V12.6236Z" fill="white"/>
<path d="M210.474 9.49037H209.53V11.3165C209.53 11.7806 209.698 12.0126 210.03 12.0126C210.184 12.0126 210.311 11.9999 210.412 11.9735L210.434 12.6075C210.265 12.6697 210.042 12.7008 209.768 12.7008C209.43 12.7008 209.166 12.6003 208.976 12.3994C208.784 12.1984 208.689 11.8603 208.689 11.3858V9.49037H208.126V8.86439H208.689V8.17542L209.529 7.92822V8.8636H210.473V9.49037H210.474Z" fill="white"/>
<path d="M215.011 12.625H214.154V10.4879C214.154 9.81407 213.895 9.47676 213.377 9.47676C212.98 9.47676 212.708 9.67213 212.559 10.0629C212.534 10.145 212.519 10.2455 212.519 10.3635V12.6242H211.663V7.14111H212.519V9.40659H212.536C212.806 8.99432 213.193 8.78858 213.694 8.78858C214.049 8.78858 214.342 8.90182 214.576 9.12908C214.866 9.41217 215.011 9.83321 215.011 10.3898V12.625Z" fill="white"/>
<path d="M219.692 10.5662C219.692 10.7161 219.681 10.8421 219.66 10.945H217.09C217.101 11.3166 217.224 11.5996 217.462 11.7958C217.68 11.9712 217.96 12.059 218.304 12.059C218.684 12.059 219.031 11.9999 219.343 11.8811L219.477 12.4617C219.112 12.6164 218.681 12.6937 218.183 12.6937C217.586 12.6937 217.116 12.5223 216.776 12.1794C216.434 11.8365 216.265 11.3764 216.265 10.799C216.265 10.2321 216.422 9.75999 216.741 9.38361C217.073 8.98171 217.522 8.78076 218.088 8.78076C218.643 8.78076 219.064 8.98171 219.349 9.38361C219.579 9.70258 219.692 10.0973 219.692 10.5662ZM218.874 10.3501C218.881 10.1021 218.825 9.88838 218.708 9.70816C218.56 9.47611 218.333 9.35969 218.026 9.35969C217.747 9.35969 217.518 9.47292 217.344 9.70019C217.202 9.8812 217.118 10.0973 217.09 10.3501H218.874Z" fill="white"/>
<path d="M164.435 27.0364H162.577L161.56 23.9193H158.024L157.054 27.0364H155.246L158.75 16.4243H160.914L164.435 27.0364ZM161.253 22.6115L160.333 19.8405C160.236 19.5574 160.054 18.8907 159.784 17.8413H159.752C159.645 18.2927 159.472 18.9593 159.235 19.8405L158.331 22.6115H161.253Z" fill="white"/>
<path d="M173.446 23.1151C173.446 24.4165 173.085 25.4452 172.364 26.2003C171.717 26.8725 170.915 27.2083 169.957 27.2083C168.924 27.2083 168.181 26.8462 167.729 26.1222H167.696V30.1531H165.952V21.9022C165.952 21.0841 165.93 20.2444 165.888 19.3832H167.421L167.519 20.596H167.551C168.133 19.6822 169.015 19.2261 170.199 19.2261C171.125 19.2261 171.898 19.5825 172.517 20.2962C173.136 21.0107 173.446 21.9501 173.446 23.1151ZM171.669 23.1773C171.669 22.4325 171.497 21.8185 171.152 21.3353C170.775 20.8313 170.269 20.5793 169.634 20.5793C169.204 20.5793 168.813 20.7196 168.464 20.9963C168.114 21.2754 167.885 21.6399 167.778 22.0912C167.724 22.3017 167.697 22.474 167.697 22.6095V23.8854C167.697 24.442 167.872 24.9117 168.222 25.2952C168.572 25.6788 169.027 25.8702 169.586 25.8702C170.243 25.8702 170.754 25.623 171.12 25.1302C171.486 24.6366 171.669 23.9859 171.669 23.1773Z" fill="white"/>
<path d="M182.472 23.1151C182.472 24.4165 182.111 25.4452 181.389 26.2003C180.744 26.8725 179.942 27.2083 178.984 27.2083C177.95 27.2083 177.208 26.8462 176.756 26.1222H176.723V30.1531H174.98V21.9022C174.98 21.0841 174.958 20.2444 174.915 19.3832H176.449L176.546 20.596H176.579C177.159 19.6822 178.042 19.2261 179.227 19.2261C180.152 19.2261 180.925 19.5825 181.545 20.2962C182.162 21.0107 182.472 21.9501 182.472 23.1151ZM180.696 23.1773C180.696 22.4325 180.523 21.8185 180.178 21.3353C179.801 20.8313 179.296 20.5793 178.661 20.5793C178.23 20.5793 177.84 20.7196 177.49 20.9963C177.14 21.2754 176.911 21.6399 176.804 22.0912C176.751 22.3017 176.723 22.474 176.723 22.6095V23.8854C176.723 24.442 176.898 24.9117 177.247 25.2952C177.597 25.678 178.052 25.8702 178.613 25.8702C179.269 25.8702 179.781 25.623 180.146 25.1302C180.513 24.6366 180.696 23.9859 180.696 23.1773Z" fill="white"/>
<path d="M192.565 24.0597C192.565 24.9623 192.243 25.6968 191.598 26.2637C190.889 26.8833 189.902 27.1927 188.633 27.1927C187.462 27.1927 186.523 26.9726 185.812 26.5317L186.217 25.1147C186.982 25.566 187.822 25.7925 188.737 25.7925C189.394 25.7925 189.905 25.6473 190.272 25.3587C190.638 25.07 190.82 24.6825 190.82 24.1992C190.82 23.7686 190.67 23.4058 190.368 23.1115C190.068 22.8173 189.567 22.5438 188.866 22.291C186.961 21.598 186.009 20.5829 186.009 19.248C186.009 18.3757 186.342 17.6604 187.011 17.1038C187.676 16.5464 188.565 16.2681 189.675 16.2681C190.666 16.2681 191.489 16.4363 192.145 16.772L191.709 18.158C191.096 17.8326 190.402 17.6699 189.626 17.6699C189.013 17.6699 188.534 17.8175 188.19 18.1109C187.9 18.3733 187.754 18.693 187.754 19.0718C187.754 19.4912 187.92 19.8381 188.254 20.1108C188.544 20.3628 189.072 20.6355 189.837 20.9298C190.774 21.2974 191.462 21.7272 191.904 22.22C192.345 22.7112 192.565 23.326 192.565 24.0597Z" fill="white"/>
<path d="M198.329 20.6586H196.407V24.3738C196.407 25.3187 196.746 25.7908 197.425 25.7908C197.736 25.7908 197.995 25.7645 198.199 25.7118L198.248 27.0029C197.904 27.1281 197.452 27.1911 196.892 27.1911C196.203 27.1911 195.665 26.9861 195.276 26.577C194.889 26.1672 194.695 25.4798 194.695 24.5141V20.657H193.55V19.3811H194.695V17.98L196.407 17.4761V19.3811H198.329V20.6586Z" fill="white"/>
<path d="M207.002 23.1464C207.002 24.3226 206.656 25.2882 205.968 26.0434C205.246 26.8209 204.287 27.2084 203.092 27.2084C201.941 27.2084 201.024 26.836 200.34 26.0912C199.656 25.3465 199.314 24.4063 199.314 23.2732C199.314 22.0874 199.666 21.1161 200.372 20.361C201.076 19.605 202.027 19.2271 203.221 19.2271C204.373 19.2271 205.3 19.5994 205.999 20.345C206.668 21.0683 207.002 22.0021 207.002 23.1464ZM205.192 23.2014C205.192 22.4957 205.038 21.8904 204.725 21.3857C204.359 20.7748 203.836 20.4702 203.159 20.4702C202.458 20.4702 201.926 20.7756 201.56 21.3857C201.247 21.8912 201.092 22.506 201.092 23.2333C201.092 23.939 201.247 24.5443 201.56 25.0482C201.937 25.659 202.464 25.9637 203.144 25.9637C203.809 25.9637 204.332 25.6527 204.709 25.0323C205.031 24.5179 205.192 23.9063 205.192 23.2014Z" fill="white"/>
<path d="M212.67 20.8783C212.497 20.8472 212.313 20.8313 212.12 20.8313C211.507 20.8313 211.032 21.057 210.699 21.5091C210.408 21.9078 210.263 22.4118 210.263 23.0202V27.0352H208.52L208.536 21.793C208.536 20.911 208.514 20.108 208.471 19.384H209.989L210.053 20.848H210.102C210.286 20.3449 210.576 19.9398 210.973 19.6359C211.362 19.3624 211.781 19.2261 212.234 19.2261C212.395 19.2261 212.54 19.2372 212.67 19.2572V20.8783Z" fill="white"/>
<path d="M220.468 22.8478C220.468 23.1525 220.447 23.4092 220.404 23.6189H215.173C215.194 24.3749 215.446 24.953 215.932 25.3517C216.373 25.7082 216.943 25.8868 217.643 25.8868C218.418 25.8868 219.124 25.7664 219.76 25.5248L220.033 26.705C219.29 27.0207 218.413 27.1778 217.402 27.1778C216.185 27.1778 215.229 26.8286 214.534 26.1308C213.841 25.4331 213.493 24.4961 213.493 23.3207C213.493 22.1668 213.816 21.206 214.463 20.4396C215.14 19.6215 216.056 19.2124 217.207 19.2124C218.338 19.2124 219.195 19.6215 219.776 20.4396C220.236 21.0895 220.468 21.8933 220.468 22.8478ZM218.805 22.4069C218.817 21.9029 218.703 21.4675 218.467 21.0999C218.165 20.627 217.701 20.391 217.077 20.391C216.507 20.391 216.043 20.6214 215.689 21.0839C215.399 21.4516 215.226 21.8925 215.173 22.4061H218.805V22.4069Z" fill="white"/>
</g>
<defs>
<filter id="filter0_d_2280_189" x="9.57251e-05" y="0.000194192" width="232.886" height="36.8171" filterUnits="userSpaceOnUse" color-interpolation-filters="sRGB">
<feFlood flood-opacity="0" result="BackgroundImageFix"/>
<feColorMatrix in="SourceAlpha" type="matrix" values="0 0 0 0 0 0 0 0 0 0 0 0 0 0 0 0 0 0 127 0" result="hardAlpha"/>
<feOffset dx="-0.54668" dy="0.54668"/>
<feGaussianBlur stdDeviation="1.23003"/>
<feComposite in2="hardAlpha" operator="out"/>
<feColorMatrix type="matrix" values="0 0 0 0 1 0 0 0 0 1 0 0 0 0 1 0 0 0 0.25 0"/>
<feBlend mode="normal" in2="BackgroundImageFix" result="effect1_dropShadow_2280_189"/>
<feBlend mode="normal" in="SourceGraphic" in2="effect1_dropShadow_2280_189" result="shape"/>
</filter>
<linearGradient id="paint0_linear_2280_189" x1="20.7256" y1="26.9081" x2="7.42999" y2="13.2716" gradientUnits="userSpaceOnUse">
<stop stop-color="#00A0FF"/>
<stop offset="0.0066" stop-color="#00A1FF"/>
<stop offset="0.2601" stop-color="#00BEFF"/>
<stop offset="0.5122" stop-color="#00D2FF"/>
<stop offset="0.7604" stop-color="#00DFFF"/>
<stop offset="1" stop-color="#00E3FF"/>
</linearGradient>
<linearGradient id="paint1_linear_2280_189" x1="30.5077" y1="17.9601" x2="10.8402" y2="17.9601" gradientUnits="userSpaceOnUse">
<stop stop-color="#FFE000"/>
<stop offset="0.4087" stop-color="#FFBD00"/>
<stop offset="0.7754" stop-color="#FFA500"/>
<stop offset="1" stop-color="#FF9C00"/>
</linearGradient>
<linearGradient id="paint2_linear_2280_189" x1="23.1862" y1="16.1412" x2="5.15632" y2="-2.35098" gradientUnits="userSpaceOnUse">
<stop stop-color="#FF3A44"/>
<stop offset="1" stop-color="#C31162"/>
</linearGradient>
<linearGradient id="paint3_linear_2280_189" x1="8.93793" y1="33.6711" x2="16.9891" y2="25.4135" gradientUnits="userSpaceOnUse">
<stop stop-color="#32A071"/>
<stop offset="0.0685" stop-color="#2DA771"/>
<stop offset="0.4762" stop-color="#15CF74"/>
<stop offset="0.8009" stop-color="#06E775"/>
<stop offset="1" stop-color="#00F076"/>
</linearGradient>
</defs>
</svg>
